 http://img253.imageshack.us/img253/2175/sonof.jpg


Verenigde Staten
Actie / Misdaad
95 minuten

geregisseerd door Dito Montiel
met Channing Tatum, Al Pacino en Katie Holmes

'The Son of No One' vertelt het verhaal over de jonge agent Jonathan White (Channing Tatum). Jonathan keert terug naar zijn roots om daar bij de politie te werken. Hij heeft echter een diep geworteld geheim waardoor zijn eigen leven en familie in gevaar komen.



Vertaald door Simply Release Toppers:
TackleR, Aegis en Anata






Screenshots:
 
http://img687.imageshack.us/img687/3862/screenshot1bv.jpg
 
http://img401.imageshack.us/img401/9274/screenshot2jx.jpg
 
http://img853.imageshack.us/img853/9496/screenshot3izd.jpg
 
http://img33.imageshack.us/img33/8653/screenshot4cut.jpg





INFO;


Video
ID                                       : 0
Format                                   : MPEG-4 Visual
Format profile                           : Advanced Simple@L5
Format settings, BVOP                    : 1
Format settings, QPel                    : No
Format settings, GMC                     : No warppoints
Format settings, Matrix                  : Default (H.263)
Muxing mode                              : Packed bitstream
Codec ID                                 : XVID
Codec ID/Hint                            : XviD
Duration                                 : 1h 34mn
Bit rate                                 : 921 Kbps
Width                                    : 672 pixels
Height                                   : 384 pixels
Display aspect ratio                     : 16:9
Frame rate                               : 23.976 fps
Color space                              : YUV
Chroma subsampling                       : 4:2:0
Bit depth                                : 8 bits
Scan type                                : Progressive
Compression mode                         : Lossy
Bits/(Pixel*Frame)                       : 0.149
Stream size                              : 620 MiB (88%)
Writing library                          : XviD 64

Audio
ID                                       : 1
Format                                   : MPEG Audio
Format version                           : Version 1
Format profile                           : Layer 3
Mode                                     : Joint stereo
Mode extension                           : MS Stereo
Codec ID                                 : 55
Codec ID/Hint                            : MP3
Duration                                 : 1h 33mn
Bit rate mode                            : Variable
Bit rate                                 : 110 Kbps
Nominal bit rate                         : 128 Kbps
Channel(s)                               : 2 channels
Sampling rate                            : 48.0 KHz
Compression mode                         : Lossy
Stream size                              : 73.6 MiB (10%)
Alignment                                : Aligned on interleaves
Interleave, duration                     : 24 ms (0.58 video frame)
Interleave, preload duration             : 244 ms



 
http://www.imdb.com/title/tt1535612/ 
http://www.moviemeter.nl/film/66094




Deze film wordt u aangeboden door het DutchReleaseTeam.
Voor de reviews van de nieuwste films, muziek, series, games etc
ga dan eens naar http://www.hetmultimediacafe.be

DutchReleaseteam = Hardcoded Dutch Subs